<svg xmlns="http://www.w3.org/2000/svg" width="600" height="400" viewBox="0 0 600 400">
  <!-- 背景 -->
  <rect width="600" height="400" fill="#f8f9fa" />
  
  <!-- 学校主楼 -->
  <rect x="180" y="100" width="240" height="180" fill="#0062cc" />
  <rect x="200" y="120" width="50" height="60" fill="#fff" />
  <rect x="275" y="120" width="50" height="60" fill="#fff" />
  <rect x="350" y="120" width="50" height="60" fill="#fff" />
  <rect x="200" y="200" width="50" height="60" fill="#fff" />
  <rect x="275" y="200" width="50" height="60" fill="#fff" />
  <rect x="350" y="200" width="50" height="60" fill="#fff" />
  <polygon points="180,100 300,40 420,100" fill="#1976D2" />
  <rect x="290" y="280" width="40" height="60" fill="#0d47a1" />
  
  <!-- 左侧建筑 -->
  <rect x="100" y="150" width="60" height="130" fill="#4fc3f7" />
  <rect x="110" y="160" width="15" height="20" fill="#fff" />
  <rect x="135" y="160" width="15" height="20" fill="#fff" />
  <rect x="110" y="190" width="15" height="20" fill="#fff" />
  <rect x="135" y="190" width="15" height="20" fill="#fff" />
  <rect x="110" y="220" width="15" height="20" fill="#fff" />
  <rect x="135" y="220" width="15" height="20" fill="#fff" />
  <rect x="110" y="250" width="40" height="30" fill="#0d47a1" />
  
  <!-- 右侧建筑 -->
  <rect x="440" y="150" width="60" height="130" fill="#4fc3f7" />
  <rect x="450" y="160" width="15" height="20" fill="#fff" />
  <rect x="475" y="160" width="15" height="20" fill="#fff" />
  <rect x="450" y="190" width="15" height="20" fill="#fff" />
  <rect x="475" y="190" width="15" height="20" fill="#fff" />
  <rect x="450" y="220" width="15" height="20" fill="#fff" />
  <rect x="475" y="220" width="15" height="20" fill="#fff" />
  <rect x="450" y="250" width="40" height="30" fill="#0d47a1" />
  
  <!-- 草地 -->
  <rect x="80" y="280" width="440" height="20" fill="#4CAF50" />
  
  <!-- 树木 -->
  <circle cx="130" cy="290" r="15" fill="#2e7d32" />
  <circle cx="470" cy="290" r="15" fill="#2e7d32" />
  <circle cx="180" cy="300" r="10" fill="#2e7d32" />
  <circle cx="420" cy="300" r="10" fill="#2e7d32" />
  
  <!-- 道路 -->
  <rect x="290" y="300" width="20" height="60" fill="#9e9e9e" />
  
  <!-- 人物 - 简化 -->
  <g fill="#ff5722">
    <circle cx="240" cy="330" r="8" />
    <rect x="237" y="338" width="6" height="12" />
    <path d="M237,342 L230,350 M243,342 L250,350 M237,350 L235,365 M243,350 L245,365" stroke="#ff5722" stroke-width="2" />
  </g>
  
  <g fill="#3f51b5">
    <circle cx="350" cy="340" r="8" />
    <rect x="347" y="348" width="6" height="12" />
    <path d="M347,352 L340,360 M353,352 L360,360 M347,360 L345,375 M353,360 L355,375" stroke="#3f51b5" stroke-width="2" /> 
  </g>
  
  <!-- 太阳 - 简化 -->
  <circle cx="520" cy="70" r="30" fill="#FFC107" />
  <path d="M520,30 L520,20 M520,120 L520,110 M480,70 L470,70 M570,70 L560,70 M493,43 L485,35 M547,97 L555,105 M493,97 L485,105 M547,43 L555,35" stroke="#FFC107" stroke-width="3" />
  
  <!-- 云朵 - 简化 -->
  <g fill="#fff">
    <circle cx="100" cy="70" r="15" />
    <circle cx="120" cy="70" r="20" />
    <circle cx="140" cy="70" r="15" />
    
    <circle cx="180" cy="50" r="12" />
    <circle cx="200" cy="50" r="18" />
    <circle cx="220" cy="50" r="12" />
  </g>
  
  <!-- 文字 -->
  <text x="300" y="80" font-family="Arial" font-size="22" font-weight="bold" fill="#fff" text-anchor="middle">校园管理系统</text>
</svg> 